<svg xmlns="http://www.w3.org/2000/svg" viewBox="0 0 604 604"><defs><style>.cls-1{fill:#2a2d34;}.cls-2{fill:#1f2126;}.cls-3{fill:none;stroke:#fff;stroke-linecap:round;stroke-miterlimit:10;stroke-width:32px;}</style></defs><g id="Layer_2" data-name="Layer 2"><g id="Logo"><g id="background"><path class="cls-1" d="M604,149.68V454.32A149.49,149.49,0,0,1,454.32,604H149.68A149.67,149.67,0,0,1,0,454.32V149.68A149.67,149.67,0,0,1,149.68,0H454.32A149.67,149.67,0,0,1,604,149.68Z"/></g><g id="Shadows"><path class="cls-2" d="M604,422v32.32A149.49,149.49,0,0,1,454.32,604H424.76L199.63,380.37,86.71,268.21,268.46,86.46,381.53,199.53Z"/><path class="cls-2" d="M488.52,600.08a150.48,150.48,0,0,1-34.2,3.92H233.44L101.22,478.78l98.41-98.41,34.59-34.59Z"/><path class="cls-2" d="M604,232.54V454.32a149.54,149.54,0,0,1-2.61,27.94L343.26,237.8l133-133Z"/><polygon class="cls-2" points="213.78 366.22 166.74 347.7 118.11 371.89 104.78 423.89 116.44 463.56 143 465.67 213.78 366.22"/><polygon class="cls-2" points="462.22 119.31 415.19 100.8 366.56 124.98 353.22 176.98 364.89 216.65 391.44 218.76 462.22 119.31"/></g><g id="Tics"><line class="cls-3" x1="99.18" y1="98.85" x2="258.58" y2="258.24"/><line class="cls-3" x1="258.58" y1="98.85" x2="99.18" y2="258.24"/><circle class="cls-3" cx="176" cy="420.51" r="78.75"/><circle class="cls-3" cx="422.01" cy="179.55" r="78.75"/><line class="cls-3" x1="342.2" y1="340.86" x2="501.59" y2="500.26"/><line class="cls-3" x1="501.59" y1="340.86" x2="342.2" y2="500.26"/></g></g></g></svg>